solid OpenSCAD_Model
  facet normal 0 -1 0
    outer loop
      vertex 0 0 5
      vertex 0 0 0
      vertex 56 0 0
    endloop
  endfacet
  facet normal 0 -1 0
    outer loop
      vertex 56 0 5
      vertex 0 0 5
      vertex 56 0 0
    endloop
  endfacet
  facet normal 0 0 -1
    outer loop
      vertex 0 0 0
      vertex 0 5 0
      vertex 56 0 0
    endloop
  endfacet
  facet normal 0 0 -1
    outer loop
      vertex 7 51 0
      vertex 0 5 0
      vertex 4 61 0
    endloop
  endfacet
  facet normal 0 0 -1
    outer loop
      vertex 49 51 0
      vertex 47 47 0
      vertex 7 51 0
    endloop
  endfacet
  facet normal 0 0 -1
    outer loop
      vertex 5 6 0
      vertex 0 5 0
      vertex 7 51 0
    endloop
  endfacet
  facet normal 0 0 -1
    outer loop
      vertex 47 47 0
      vertex 56 0 0
      vertex 51 6 0
    endloop
  endfacet
  facet normal 0 0 -1
    outer loop
      vertex 51 5 0
      vertex 56 0 0
      vertex 5 5 0
    endloop
  endfacet
  facet normal 0 0 -1
    outer loop
      vertex 56 0 0
      vertex 49 51 0
      vertex 49 61 0
    endloop
  endfacet
  facet normal 0 0 -1
    outer loop
      vertex 56 0 0
      vertex 49 61 0
      vertex 52 61 0
    endloop
  endfacet
  facet normal 0 0 -1
    outer loop
      vertex 56 0 0
      vertex 52 61 0
      vertex 56 5 0
    endloop
  endfacet
  facet normal 0 0 -1
    outer loop
      vertex 5 5 0
      vertex 0 5 0
      vertex 5 6 0
    endloop
  endfacet
  facet normal 0 0 -1
    outer loop
      vertex 9 47 0
      vertex 5 6 0
      vertex 7 51 0
    endloop
  endfacet
  facet normal 0 0 -1
    outer loop
      vertex 56 0 0
      vertex 0 5 0
      vertex 5 5 0
    endloop
  endfacet
  facet normal 0 0 -1
    outer loop
      vertex 51 6 0
      vertex 56 0 0
      vertex 51 5 0
    endloop
  endfacet
  facet normal 0 0 -1
    outer loop
      vertex 56 0 0
      vertex 47 47 0
      vertex 49 51 0
    endloop
  endfacet
  facet normal 0 0 -1
    outer loop
      vertex 7 51 0
      vertex 4 61 0
      vertex 7 61 0
    endloop
  endfacet
  facet normal 0 0 -1
    outer loop
      vertex 9 47 0
      vertex 7 51 0
      vertex 47 47 0
    endloop
  endfacet
  facet normal -1 0 0
    outer loop
      vertex 0 0 0
      vertex 0 0 5
      vertex 0 5 0
    endloop
  endfacet
  facet normal -1 0 0
    outer loop
      vertex 0 5 0
      vertex 0 0 5
      vertex 0 5 5
    endloop
  endfacet
  facet normal 0 0 1
    outer loop
      vertex 0 5 5
      vertex 0 0 5
      vertex 56 0 5
    endloop
  endfacet
  facet normal 0 0 1
    outer loop
      vertex 5 5 5
      vertex 0 5 5
      vertex 56 0 5
    endloop
  endfacet
  facet normal 0 0 1
    outer loop
      vertex 56 5 5
      vertex 51 5 5
      vertex 56 0 5
    endloop
  endfacet
  facet normal 0 0 1
    outer loop
      vertex 5 6 5
      vertex 9 47 5
      vertex 0 5 5
    endloop
  endfacet
  facet normal 0 0 1
    outer loop
      vertex 52 61 5
      vertex 49 51 5
      vertex 56 5 5
    endloop
  endfacet
  facet normal 0 0 1
    outer loop
      vertex 7 61 5
      vertex 0 5 5
      vertex 7 51 5
    endloop
  endfacet
  facet normal 0 0 1
    outer loop
      vertex 4 61 5
      vertex 0 5 5
      vertex 7 61 5
    endloop
  endfacet
  facet normal 0 0 1
    outer loop
      vertex 51 5 5
      vertex 5 5 5
      vertex 56 0 5
    endloop
  endfacet
  facet normal 0 0 1
    outer loop
      vertex 5 6 5
      vertex 0 5 5
      vertex 5 5 5
    endloop
  endfacet
  facet normal 0 0 1
    outer loop
      vertex 7 51 5
      vertex 0 5 5
      vertex 9 47 5
    endloop
  endfacet
  facet normal 0 0 1
    outer loop
      vertex 49 51 5
      vertex 47 47 5
      vertex 56 5 5
    endloop
  endfacet
  facet normal 0 0 1
    outer loop
      vertex 47 47 5
      vertex 51 6 5
      vertex 56 5 5
    endloop
  endfacet
  facet normal 0 0 1
    outer loop
      vertex 51 6 5
      vertex 51 5 5
      vertex 56 5 5
    endloop
  endfacet
  facet normal 0 0 1
    outer loop
      vertex 9 47 5
      vertex 47 47 5
      vertex 49 51 5
    endloop
  endfacet
  facet normal 0 0 1
    outer loop
      vertex 49 61 5
      vertex 49 51 5
      vertex 52 61 5
    endloop
  endfacet
  facet normal 0 0 1
    outer loop
      vertex 49 51 5
      vertex 7 51 5
      vertex 9 47 5
    endloop
  endfacet
  facet normal 1 0 0
    outer loop
      vertex 56 0 5
      vertex 56 0 0
      vertex 56 5 0
    endloop
  endfacet
  facet normal 1 0 0
    outer loop
      vertex 56 5 5
      vertex 56 0 5
      vertex 56 5 0
    endloop
  endfacet
  facet normal 0.997459 0.071247 0
    outer loop
      vertex 56 5 0
      vertex 52 61 0
      vertex 52 61 5
    endloop
  endfacet
  facet normal 0.997459 0.071247 0
    outer loop
      vertex 56 5 5
      vertex 56 5 0
      vertex 52 61 5
    endloop
  endfacet
  facet normal 0 1 0
    outer loop
      vertex 49 61 0
      vertex 49 61 5
      vertex 52 61 0
    endloop
  endfacet
  facet normal 0 1 0
    outer loop
      vertex 52 61 0
      vertex 49 61 5
      vertex 52 61 5
    endloop
  endfacet
  facet normal -1 0 0
    outer loop
      vertex 49 61 5
      vertex 49 61 0
      vertex 49 51 5
    endloop
  endfacet
  facet normal -1 0 0
    outer loop
      vertex 49 51 5
      vertex 49 61 0
      vertex 49 51 0
    endloop
  endfacet
  facet normal 0 1 0
    outer loop
      vertex 49 51 5
      vertex 49 51 0
      vertex 7 51 5
    endloop
  endfacet
  facet normal 0 1 0
    outer loop
      vertex 7 51 5
      vertex 49 51 0
      vertex 7 51 0
    endloop
  endfacet
  facet normal 1 0 0
    outer loop
      vertex 7 61 0
      vertex 7 61 5
      vertex 7 51 5
    endloop
  endfacet
  facet normal 1 0 0
    outer loop
      vertex 7 51 0
      vertex 7 61 0
      vertex 7 51 5
    endloop
  endfacet
  facet normal 0 1 0
    outer loop
      vertex 4 61 0
      vertex 4 61 5
      vertex 7 61 0
    endloop
  endfacet
  facet normal 0 1 0
    outer loop
      vertex 7 61 0
      vertex 4 61 5
      vertex 7 61 5
    endloop
  endfacet
  facet normal -0.997459 0.071247 0
    outer loop
      vertex 0 5 0
      vertex 0 5 5
      vertex 4 61 0
    endloop
  endfacet
  facet normal -0.997459 0.071247 0
    outer loop
      vertex 4 61 0
      vertex 0 5 5
      vertex 4 61 5
    endloop
  endfacet
  facet normal 1 0 0
    outer loop
      vertex 5 6 0
      vertex 5 6 5
      vertex 5 5 5
    endloop
  endfacet
  facet normal 1 0 0
    outer loop
      vertex 5 5 0
      vertex 5 6 0
      vertex 5 5 5
    endloop
  endfacet
  facet normal 0.995275 -0.0971 0
    outer loop
      vertex 9 47 0
      vertex 9 47 5
      vertex 5 6 5
    endloop
  endfacet
  facet normal 0.995275 -0.0971 0
    outer loop
      vertex 5 6 0
      vertex 9 47 0
      vertex 5 6 5
    endloop
  endfacet
  facet normal 0 -1 0
    outer loop
      vertex 47 47 0
      vertex 47 47 5
      vertex 9 47 5
    endloop
  endfacet
  facet normal 0 -1 0
    outer loop
      vertex 9 47 0
      vertex 47 47 0
      vertex 9 47 5
    endloop
  endfacet
  facet normal -0.995275 -0.0971 0
    outer loop
      vertex 51 6 5
      vertex 47 47 5
      vertex 51 6 0
    endloop
  endfacet
  facet normal -0.995275 -0.0971 0
    outer loop
      vertex 51 6 0
      vertex 47 47 5
      vertex 47 47 0
    endloop
  endfacet
  facet normal -1 0 0
    outer loop
      vertex 51 6 5
      vertex 51 6 0
      vertex 51 5 5
    endloop
  endfacet
  facet normal -1 0 0
    outer loop
      vertex 51 5 5
      vertex 51 6 0
      vertex 51 5 0
    endloop
  endfacet
  facet normal 0 1 0
    outer loop
      vertex 51 5 5
      vertex 51 5 0
      vertex 5 5 5
    endloop
  endfacet
  facet normal 0 1 0
    outer loop
      vertex 5 5 5
      vertex 51 5 0
      vertex 5 5 0
    endloop
  endfacet
endsolid OpenSCAD_Model
